<svg width="221" height="52" viewBox="0 0 221 52" fill="none" xmlns="http://www.w3.org/2000/svg">
<path fill-rule="evenodd" clip-rule="evenodd" d="M118.582 6.70259L117.72 9.18401C116.697 6.65681 114.736 6.04332 112.794 6.14404C105.945 6.49199 101.512 12.7825 98.1487 21.3805C95.07 31.819 95.6762 38.9061 102.658 39.1717C104.353 39.2358 106.248 38.3842 107.953 36.9741L106.437 41.3326C105.509 43.9972 104.117 49.5918 98.9349 49.6834H89.983L89.0073 52H99.2664C107.906 52 112.007 47.5774 114.158 41.4883L126.397 6.74837L118.582 6.71175V6.70259ZM115.077 16.8572L109.98 31.3703C109.08 33.9708 107.025 35.8479 104.988 35.8479C100.659 35.8479 105.045 23.9077 105.642 22.3053C106.561 19.8056 109.488 9.45871 113.466 9.45871C116.1 9.45871 116.782 11.4915 115.086 16.8572H115.077ZM155.232 39.4372C158.036 39.4372 160.698 38.2103 162.934 36.2599L162.157 38.5582L169.849 38.6498L181.141 6.70259H173.335L165.709 28.4677C164.61 31.5992 162.792 35.8112 158.908 35.8387C156.085 35.857 157.515 32.6705 158.567 29.6764L166.581 6.70259H158.69L150.098 31.1872C148.469 35.8387 150.903 39.4464 155.232 39.4464V39.4372ZM128.254 38.6315L135.406 18.0292C136.504 14.8977 139.365 9.68762 142.624 9.63268C145.058 9.59606 144.054 12.7276 143.003 15.7218L135.008 38.6315H142.899L151.85 13.103C153.234 9.17486 151.225 5.96091 146.356 5.8785C143.552 5.83272 140.89 7.11463 138.655 9.05582L139.432 6.75753L131.74 6.67512L120.448 38.6223H128.254V38.6315ZM97.2298 47.6049L99.7496 40.6093H93.2512L90.7314 47.6049H97.2298ZM96.6614 15.5936C98.9728 8.93678 96.3299 5.96091 88.2589 5.97922C82.5563 5.99753 78.2366 9.23895 76.0673 15.1266H81.4764C83.2383 10.0997 84.6024 8.51558 87.5958 8.5339C92.1807 8.55221 90.324 11.4915 89.5283 13.9729L88.0032 18.2398C77.4504 18.7343 73.8791 18.9632 70.8288 26.7554C70.3078 28.1014 69.7963 29.5298 69.3226 31.0041L69.0384 32.6248C68.4038 36.324 71.0941 39.1259 75.5842 39.016C77.924 38.9611 80.3017 37.7707 81.6469 36.5346L80.7564 38.6772H88.4768L95.2026 19.7598L96.6519 15.5844L96.6614 15.5936ZM87.1033 21.0692L83.8919 30.125C82.5184 33.9982 80.0744 35.8936 78.1135 35.8479C77.0999 35.8204 76.0294 35.1062 76.2852 33.5954L80.0365 23.8345C81.0406 21.4629 82.31 20.4649 86.6107 20.474C86.9517 20.4557 87.2453 20.6388 87.1033 21.06V21.0692ZM215.073 5.88766C211.909 5.88766 208.906 7.46258 206.519 9.8616C205.638 7.43511 203.705 5.93344 200.219 5.88766C197.112 5.84187 194.791 7.11463 192.622 9.04666L193.55 6.73921L185.726 6.75753L174.405 38.6315H182.296L189.183 18.6702C191.324 12.4529 194.431 9.41292 196.676 9.57774C199.205 9.77003 198.561 11.757 197.169 15.7401L189.174 38.6315H196.979L203.866 18.6702C204.671 16.2803 206.035 13.3594 207.797 11.4823C208.849 10.356 210.042 9.55027 211.359 9.57774C214.173 9.651 212.932 12.6543 211.833 15.7401L203.734 38.6315H211.624L220.576 13.1213C222.045 8.93678 219.572 5.88766 215.082 5.88766H215.073ZM10.1928 6.50114C8.89505 6.50114 7.84356 7.51752 7.84356 8.77197C7.84356 10.0264 8.89505 11.0428 10.1928 11.0428C10.8749 11.0428 28.7313 11.0519 28.7313 11.0519L29.5081 12.9931C29.5081 12.9931 18.9174 12.9931 18.2637 12.9931C16.9565 12.9931 15.8955 14.0187 15.8955 15.2823C15.8955 16.5459 16.9565 17.5714 18.2637 17.5714C18.9174 17.5714 33.4677 17.5531 33.4677 17.5531L26.0978 38.6315H33.9887L40.8376 18.7709C43.0732 12.2789 45.953 9.55943 48.3591 9.57774C51.2957 9.59606 49.7043 13.2404 48.9843 15.3006L40.8471 38.6315H48.6528L55.5396 18.6702C56.9226 14.5223 59.6698 9.62353 63.0326 9.57774C66.1303 9.53196 64.1789 13.8447 63.6578 15.3189L55.407 38.6315H63.2979L72.2782 13.0298C73.8033 8.75365 71.132 5.8785 66.7555 5.8785C63.5915 5.8785 60.5981 7.45342 58.2015 9.85244C57.3205 7.42596 55.388 5.92428 51.902 5.8785C49.6569 5.84187 47.7055 6.58355 45.8772 7.63656C43.6132 3.08575 38.0526 0 32.8899 0C32.8899 0 3.19237 0 2.35875 0C1.05149 0 0 1.01638 0 2.27998C0 3.53443 1.05149 4.55996 2.35875 4.55996C3.10711 4.55996 26.0978 4.5508 26.0978 4.5508L26.903 6.49199C26.903 6.49199 10.7423 6.49199 10.1928 6.49199V6.50114Z" fill="#AB0432"/>
</svg>
